<svg xmlns="http://www.w3.org/2000/svg" fill="none" viewBox="0 0 128 128">
    <path d="M50.4 78.5a75.1 75.1 0 0 0-28.5 6.9l24.2-65.7c.7-2 1.9-3.2 3.4-3.2h29c1.5 0 2.7 1.2 3.4 3.2l24.2 65.7s-11.6-7-28.5-7L67 45.5c-.4-1.7-1.6-2.8-2.9-2.8-1.3 0-2.5 1.1-2.9 2.7L50.4 78.5Zm-1.1 28.2Zm-4.2-20.2c-2 6.6-.6 15.8 4.2 20.2a17.5 17.5 0 0 1 .2-.7 5.5 5.5 0 0 1 5.7-4.5c2.8.1 4.3 1.5 4.7 4.7.2 1.1.2 2.3.2 3.5v.4c0 2.7.7 5.2 2.2 7.4a13 13 0 0 0 5.7 4.9v-.3l-.2-.3c-1.8-5.6-.5-9.5 4.4-12.8l1.5-1a73 73 0 0 0 3.2-2.2 16 16 0 0 0 6.8-11.4c.3-2 .1-4-.6-6l-.8.6-12.6 11c-.4.3-.8.5-1.2.5-1.4 0-2-1.2-1.4-2.8l11.7-29.2c0-.2 0-.3.1-.4.1-.2.2-.3.4-.4.1-.1.3-.1.4-.1l.2-.1.3-.1h.3a3.8 3.8 0 0 1 2.1.6l.1.1c.1 0 .1.1.2.1l.1.1.1.1.1.1.1.1c2.5 2.1 3.2 4.9 2.1 8.3l-12.5 34.8v.1a11.7 11.7 0 0 0-.2 3.2c.3 3.4 1.8 6.1 4.5 8.1a11 11 0 0 0 7.2 2.4c6.5-.1 12.1-4.8 13.6-11.5.9-4.1.5-7.9-1.1-11.4-1.1-2.3-2.8-4.3-5-6.1l-1-.8-.4-.3a48 48 0 0 0-12.5-7.9A75 75 0 0 0 64 59.5c.1 0 11.8-1 28.5 6.9L67.7 1.2C66.2-1.3 64.4-2 62.9-2h-29c-1.5 0-3.3.7-4.8 3.2L4.4 66.4c.9-.4 1.8-.8 2.7-1.1a75 75 0 0 1 25.8-5.8c.1 0 11.8 1 28.5-6.9l-12.6 34.8v.1c-1 2.6-.5 4.7 1.4 6.3.9.7 1.9 1 3 1 2.6 0 5.6-1.9 8.9-5.7 0 0-1.1 14.3-11.7 20.2-5.6 3.1-10.6 2.6-14.8.9-3.6-1.5-6.5-4.3-8.5-8.3-.5-1 .1-2.2 1.3-2.8 1.2-.6 2.7-.3 3.4.7l.1.1c1.2 1.8 2.8 3 4.7 3.6 1.9.6 4 .6 6.1-.1 4.2-1.4 6.3-4.2 6.3-8.4 0-4.2-2.1-7-6.3-8.4-2.1-.7-4.2-.7-6.1-.1-1.9.6-3.5 1.8-4.7 3.6l-.1.1a3.2 3.2 0 0 1-3.4.7c-1.2-.6-1.8-1.8-1.3-2.8 2-4 4.9-6.8 8.5-8.3 4.2-1.7 9.2-2.2 14.8.9 10.6 5.9 11.7 20.2 11.7 20.2-3.3-3.8-6.3-5.7-8.9-5.7-1.1 0-2.1.3-3 1-1.9 1.6-2.4 3.7-1.4 6.3v.1l12.6 34.8C116.5 128.7 128 128 128 128l-24.2-65.7a75.1 75.1 0 0 0-28.5-6.9c16.7 7.9 28.5 6.9 28.5 6.9a75 75 0 0 1-25.8 5.8 48 48 0 0 1-12.5 7.9l-.4.3-1 .8c-2.2 1.8-3.9 3.8-5 6.1-1.6 3.5-2 7.3-1.1 11.4 1.5 6.7 7.1 11.4 13.6 11.5a11 11 0 0 0 7.2-2.4c2.7-2 4.2-4.7 4.5-8.1.1-1.1 0-2.2-.2-3.2v-.1L70.5 56.3c-1.1-3.4-.4-6.2 2.1-8.3l.1-.1.1-.1.1-.1.1-.1.2-.1.1-.1c.6-.4 1.3-.6 2.1-.6h.3l.3.1.2.1c.1 0 .3 0 .4.1.2.1.3.2.4.4.1.1.1.2.1.4l11.7 29.2c.6 1.6 0 2.8-1.4 2.8-.4 0-.8-.2-1.2-.5L73.6 68l-.8-.6c-.7 2-.9 4-.6 6a16 16 0 0 0 6.8 11.4 73 73 0 0 0 3.2 2.2l1.5 1c4.9 3.3 6.2 7.2 4.4 12.8l-.2.3v.3a13 13 0 0 0 5.7-4.9c1.5-2.2 2.2-4.7 2.2-7.4v-.4c0-1.2 0-2.4.2-3.5.4-3.2 1.9-4.6 4.7-4.7a5.5 5.5 0 0 1 5.7 4.5c.1.2.1.5.2.7 4.8-4.4 6.2-13.6 4.2-20.2Z" />
</svg>
